<svg xmlns="http://www.w3.org/2000/svg" version="1.1" xmlns:xlink="http://www.w3.org/1999/xlink" xmlns:svgjs="http://svgjs.dev/svgjs" width="1000" height="1000" viewBox="0 0 1000 1000"><rect width="1000" height="1000" fill="#ffffff"></rect><g transform="matrix(0.7,0,0,0.7,149.5757575757575,402.39785081772334)"><svg viewBox="0 0 396 111" data-background-color="#ffffff" preserveAspectRatio="xMidYMid meet" height="280" width="1000" xmlns="http://www.w3.org/2000/svg" xmlns:xlink="http://www.w3.org/1999/xlink"><g id="tight-bounds" transform="matrix(1,0,0,1,0.24000000000003752,-0.2253134733025206)"><svg viewBox="0 0 395.5199999999999 111.4506267379679" height="111.4506267379679" width="395.5199999999999"><g><svg viewBox="0 0 395.5199999999999 111.4506267379679" height="111.4506267379679" width="395.5199999999999"><g><svg viewBox="0 0 395.5199999999999 111.4506267379679" height="111.4506267379679" width="395.5199999999999"><g id="textblocktransform"><svg viewBox="0 0 395.5199999999999 111.4506267379679" height="111.4506267379679" width="395.5199999999999" id="textblock"><g><svg viewBox="0 0 395.5199999999999 111.4506267379679" height="111.4506267379679" width="395.5199999999999"><g transform="matrix(1,0,0,1,0,0)"><svg width="395.5199999999999" viewBox="-1.1700000762939453 -37.60000228881836 302.1000061035156 81.51000213623047" height="111.4506267379679" data-palette-color="#096a2e"><svg></svg><svg></svg><g class="wordmark-text-0" data-fill-palette-color="primary" id="text-0"><path xmlns="http://www.w3.org/2000/svg" d="M-0.39-29.25v0c0-0.293 0.017-0.727 0.05-1.3 0.033-0.58 0.05-0.977 0.05-1.19v0c0-0.08-0.017-0.373-0.05-0.88-0.033-0.5-0.05-0.94-0.05-1.32v0c0-1.72 0.163-2.58 0.49-2.58v0c0.127 0 0.24 0.017 0.34 0.05v0c3.4 0 8.44-0.043 15.12-0.13 6.687-0.08 11.69-0.12 15.01-0.12v0c0.827 0 1.35 0.073 1.57 0.22 0.22 0.147 0.33 0.433 0.33 0.86v0 0.68c0 0.847 0.01 2.097 0.03 3.75 0.013 1.647 0.02 2.903 0.02 3.77v0c0 0.847-0.227 1.27-0.68 1.27v0c-0.913 0-2.273-0.017-4.08-0.05-1.807-0.033-3.167-0.05-4.08-0.05v0 26.17c-0.113 0.487-0.39 0.747-0.83 0.78v0c-0.567 0-1.397-0.007-2.49-0.02-1.087-0.02-1.917-0.03-2.49-0.03v0c-0.033 0-0.067 0.017-0.1 0.05v0c-0.713 0-1.717-0.007-3.01-0.02-1.293-0.02-2.257-0.03-2.89-0.03v0h-1.47c-0.327 0.033-0.8 0.05-1.42 0.05v0l-0.97-1.17c0-2.473 0.08-6.15 0.24-11.03 0.167-4.887 0.25-8.567 0.25-11.04v0c0-0.113-0.007-0.3-0.02-0.56-0.007-0.26-0.01-0.47-0.01-0.63 0-0.167-0.01-0.373-0.03-0.62-0.027-0.24-0.07-0.437-0.13-0.59-0.053-0.16-0.12-0.317-0.2-0.47-0.087-0.153-0.197-0.267-0.33-0.34-0.14-0.073-0.307-0.11-0.5-0.11v0h-6.99c-0.453-0.127-0.68-1.25-0.68-3.37zM34.42-0.88v0-0.93c0-2.78 0.033-6.89 0.1-12.33 0.067-5.433 0.1-9.54 0.1-12.32v0-10.11h28.42v8.01c0 0.047 0 0.167 0 0.36 0 0.193 0 0.323 0 0.39 0 0.067-0.01 0.187-0.03 0.36-0.013 0.167-0.04 0.283-0.08 0.35-0.04 0.067-0.097 0.16-0.17 0.28-0.073 0.12-0.16 0.207-0.26 0.26-0.1 0.047-0.23 0.09-0.39 0.13-0.16 0.04-0.34 0.06-0.54 0.06v0h-0.68c-4.213 0-8.053-0.063-11.52-0.19v0c-0.033 0.26-0.087 0.663-0.16 1.21-0.073 0.54-0.13 1.02-0.17 1.44-0.047 0.413-0.07 0.813-0.07 1.2v0h11.63c0.487 0 0.81 0.067 0.97 0.2 0.167 0.133 0.25 0.343 0.25 0.63v0c0 0.087-0.01 0.22-0.03 0.4-0.013 0.173-0.02 0.303-0.02 0.39v0c0 0.78 0.023 1.933 0.07 3.46 0.047 1.533 0.07 2.69 0.07 3.47v0c-0.047 0.327-0.177 0.49-0.39 0.49v0c-0.093 0-0.173-0.033-0.24-0.1v0c-5.147 0.26-8.957 0.39-11.43 0.39v0h-0.63v3.52c1.447 0 3.543-0.067 6.29-0.2 2.74-0.127 4.793-0.19 6.16-0.19v0c1.073 0 1.693 0.227 1.86 0.68v0 1.86c0 0.78 0.013 1.933 0.04 3.46 0.033 1.533 0.05 2.69 0.05 3.47v0c0 0.813-0.323 1.22-0.97 1.22v0c-0.847 0-2.15-0.007-3.91-0.02-1.76-0.02-3.093-0.03-4-0.03v0c-2.347 0-5.7 0.06-10.06 0.18-4.367 0.127-7.523 0.197-9.47 0.21v0l-0.69-0.78c-0.067-0.453-0.1-0.747-0.1-0.88zM101.37-13.09v0c-0.28 2.447-0.923 4.61-1.93 6.49-1.013 1.88-2.307 3.41-3.88 4.59-1.58 1.18-3.377 2.07-5.39 2.67-2.007 0.6-4.2 0.9-6.58 0.9v0c-2.213 0-4.23-0.24-6.05-0.72-1.827-0.48-3.367-1.117-4.62-1.91-1.253-0.8-2.36-1.773-3.32-2.92-0.96-1.147-1.723-2.327-2.29-3.54-0.567-1.213-1.027-2.54-1.38-3.98-0.347-1.44-0.583-2.783-0.71-4.03-0.12-1.247-0.18-2.543-0.18-3.89v0-2.15c0.16-2.38 0.713-4.517 1.66-6.41 0.947-1.893 2.093-3.423 3.44-4.59 1.353-1.167 2.9-2.137 4.64-2.91 1.74-0.773 3.433-1.31 5.08-1.61 1.64-0.3 3.277-0.45 4.91-0.45v0c2.62 0 4.933 0.313 6.94 0.94 2.013 0.627 3.653 1.51 4.92 2.65 1.273 1.14 2.267 2.447 2.98 3.92 0.713 1.473 1.17 3.12 1.37 4.94v0 2.35c0 0.52-1.79 0.78-5.37 0.78v0c-0.847 0-2.023-0.017-3.53-0.05-1.507-0.033-2.497-0.05-2.97-0.05v0c-0.08 0-0.2 0.007-0.36 0.02-0.167 0.02-0.29 0.03-0.37 0.03v0c-0.427 0-0.75-0.177-0.97-0.53-0.22-0.347-0.363-0.773-0.43-1.28-0.073-0.5-0.163-1.003-0.27-1.51-0.107-0.507-0.327-0.933-0.66-1.28-0.333-0.353-0.793-0.53-1.38-0.53-0.587 0-1.1 0.097-1.54 0.29-0.44 0.2-0.79 0.507-1.05 0.92-0.26 0.413-0.477 0.833-0.65 1.26-0.167 0.42-0.287 0.97-0.36 1.65-0.073 0.673-0.123 1.24-0.15 1.7-0.027 0.467-0.047 1.087-0.06 1.86-0.02 0.773-0.037 1.34-0.05 1.7v0c0 0.193-0.017 0.55-0.05 1.07-0.033 0.52-0.05 0.943-0.05 1.27v0c0 4.053 1.077 6.137 3.23 6.25v0c0.58 0 1.06-0.21 1.44-0.63 0.373-0.427 0.63-0.9 0.77-1.42 0.133-0.52 0.29-1.07 0.47-1.65 0.18-0.58 0.377-0.973 0.59-1.18v0h13.28c0.533 0.047 0.827 0.37 0.88 0.97zM113.72 0.63h-2.88c-0.453 0-0.983 0.013-1.59 0.04-0.6 0.027-1.063 0.047-1.39 0.06-0.327 0.02-0.697 0.017-1.11-0.01-0.413-0.027-0.727-0.083-0.94-0.17-0.213-0.087-0.437-0.22-0.67-0.4-0.233-0.18-0.403-0.427-0.51-0.74-0.107-0.307-0.197-0.687-0.27-1.14-0.073-0.46-0.11-1.007-0.11-1.64v0c0-3.513 0.063-8.31 0.19-14.39 0.133-6.08 0.2-10.543 0.2-13.39v0c0-3.52 0.18-5.377 0.54-5.57v0h9.08c1.607 0 2.807 0.093 3.6 0.28 0.787 0.187 1.31 0.467 1.57 0.84 0.26 0.38 0.39 0.95 0.39 1.71v0c0 0.233-0.013 0.677-0.04 1.33-0.033 0.66-0.05 1.21-0.05 1.65v0 1.12c0 0.527-0.027 1.31-0.08 2.35-0.047 1.04-0.07 1.82-0.07 2.34v0 0.49c0.033 0.1 0.05 0.23 0.05 0.39v0h0.98c0.273 0 0.697 0.01 1.27 0.03 0.567 0.013 0.987 0.02 1.26 0.02v0c0.753 0 1.307-0.05 1.66-0.15v0-10.15c0-0.813 0.043-1.397 0.13-1.75 0.08-0.347 0.193-0.567 0.34-0.66 0.147-0.087 0.413-0.13 0.8-0.13v0c0.213 0 0.557 0.007 1.03 0.02 0.473 0.02 0.817 0.03 1.03 0.03v0l1.8-0.08c1.22-0.047 2.31-0.07 3.27-0.07v0c4.427 0 6.64 0.49 6.64 1.47v0c0 0.26 0.01 0.633 0.03 1.12 0.013 0.487 0.02 0.86 0.02 1.12v0c0 0.573-0.007 1.403-0.02 2.49-0.02 1.093-0.03 1.923-0.03 2.49v0c0 1.693 0.027 4.217 0.08 7.57 0.047 3.353 0.07 5.877 0.07 7.57v0c0 0.147-0.007 0.33-0.02 0.55-0.02 0.22-0.03 0.363-0.03 0.43v0 1.17c0 1.04 0.017 1.82 0.05 2.34v0 0.54c-0.033 0.067-0.05 0.163-0.05 0.29v0c0 0.86 0.017 2.17 0.05 3.93 0.033 1.76 0.05 3.07 0.05 3.93v0c-0.113 0.587-1.677 0.88-4.69 0.88v0h-10.15l-0.74-1.02v-1.62c0-1.087 0.01-2.697 0.03-4.83 0.013-2.133 0.02-3.743 0.02-4.83v0c0-0.373-0.043-0.63-0.13-0.77-0.093-0.14-0.277-0.21-0.55-0.21v0h-0.88c-1.107 0-2.117 0.067-3.03 0.2v0c0 1.347-0.017 3.377-0.05 6.09-0.033 2.707-0.05 4.743-0.05 6.11v0c-0.193 0.487-2.227 0.73-6.1 0.73zM143.46-18.26v0c0-2.247 0.25-4.307 0.75-6.18 0.507-1.873 1.18-3.46 2.02-4.76 0.84-1.3 1.85-2.457 3.03-3.47 1.18-1.007 2.397-1.817 3.65-2.43 1.253-0.607 2.6-1.107 4.04-1.5 1.44-0.387 2.787-0.65 4.04-0.79 1.253-0.14 2.52-0.21 3.8-0.21v0c0.947 0 1.873 0.04 2.78 0.12 0.9 0.087 1.917 0.23 3.05 0.43 1.127 0.207 2.183 0.52 3.17 0.94 0.987 0.427 1.93 0.943 2.83 1.55 0.907 0.613 1.693 1.403 2.36 2.37 0.667 0.967 1.147 2.06 1.44 3.28v0c0.08 0.473 0.243 1.81 0.49 4.01v0c-0.067 0.487-0.587 0.73-1.56 0.73v0c-1.4 0-3.437-0.033-6.11-0.1-2.667-0.067-4.667-0.1-6-0.1v0c-0.2-0.06-0.357-0.19-0.47-0.39-0.113-0.193-0.19-0.403-0.23-0.63-0.04-0.227-0.103-0.47-0.19-0.73-0.093-0.26-0.21-0.493-0.35-0.7-0.133-0.2-0.377-0.37-0.73-0.51-0.347-0.14-0.783-0.21-1.31-0.21v0c-0.68 0-1.29 0.117-1.83 0.35-0.533 0.24-0.97 0.53-1.31 0.87-0.347 0.34-0.64 0.803-0.88 1.39-0.247 0.587-0.43 1.12-0.55 1.6-0.127 0.48-0.22 1.09-0.28 1.83-0.067 0.74-0.103 1.323-0.11 1.75-0.013 0.42-0.02 0.98-0.02 1.68v0c0 0.213 0.01 0.473 0.03 0.78 0.013 0.313 0.02 0.527 0.02 0.64v0 0.73c0 0.52 0.01 0.953 0.03 1.3 0.013 0.34 0.057 0.777 0.13 1.31 0.073 0.54 0.177 0.993 0.31 1.36 0.127 0.367 0.317 0.757 0.57 1.17 0.253 0.413 0.563 0.747 0.93 1 0.367 0.253 0.827 0.467 1.38 0.64 0.553 0.167 1.18 0.25 1.88 0.25v0c1.807 0 3.287-0.177 4.44-0.53v0-2.98h-1.07v0.05h-1.76c-0.133 0-0.367 0.007-0.7 0.02-0.333 0.02-0.603 0.03-0.81 0.03v0l-0.88-0.98v-6.74c0-0.42 0.293-0.877 0.88-1.37v0h1.75c1.22 0 2.703 0.017 4.45 0.05 1.74 0.033 3.073 0.05 4 0.05v0h1.95c0.947 0 1.683 0.01 2.21 0.03 0.533 0.013 1.123 0.09 1.77 0.23 0.653 0.133 1.087 0.34 1.3 0.62v0c0 2.133-0.05 5.243-0.15 9.33-0.1 4.08-0.15 7.04-0.15 8.88v0c0 0.053 0.01 0.13 0.03 0.23 0.013 0.107 0.02 0.193 0.02 0.26v0 0.54c-0.553 0.647-2.36 1.217-5.42 1.71-3.06 0.487-5.63 0.73-7.71 0.73v0h-0.64c-0.453 0-1.127 0.033-2.02 0.1-0.9 0.06-1.577 0.09-2.03 0.09v0c-6.56 0-11.577-1.753-15.05-5.26-3.473-3.507-5.21-8.327-5.21-14.46zM221.34 0.1v0c-0.36 0.353-1.113 0.563-2.26 0.63-1.147 0.067-2.56 0.05-4.24-0.05-1.673-0.093-2.567-0.14-2.68-0.14v0c-1.107 0-1.903-0.017-2.39-0.05v0h-2.45c-0.353-0.113-0.653-0.647-0.9-1.6-0.247-0.953-0.487-2.32-0.72-4.1-0.233-1.787-0.36-2.737-0.38-2.85v0c-0.067-1.607-0.327-2.667-0.78-3.18-0.453-0.513-1.283-0.77-2.49-0.77v0h-1.07v11.91c-0.033 0.2-0.207 0.363-0.52 0.49-0.307 0.133-0.75 0.22-1.33 0.26-0.573 0.04-1.083 0.063-1.53 0.07-0.453 0.007-1.043 0.003-1.77-0.01-0.733-0.02-1.183-0.03-1.35-0.03v0h-3.51c-1.987 0-3.487 0.017-4.5 0.05v0c-0.227-0.093-0.453-0.207-0.68-0.34v0-36.43c0-0.453 0.65-0.68 1.95-0.68v0h21.29c3.7 0.1 6.513 0.98 8.44 2.64 1.927 1.66 2.89 4.003 2.89 7.03v0c0 3.94-1.987 6.82-5.96 8.64v0c0.733 0.227 1.393 0.543 1.98 0.95 0.587 0.407 1.077 0.843 1.47 1.31 0.387 0.467 0.727 1.023 1.02 1.67 0.293 0.653 0.523 1.263 0.69 1.83 0.16 0.573 0.3 1.25 0.42 2.03 0.127 0.78 0.213 1.457 0.26 2.03 0.047 0.567 0.107 1.243 0.18 2.03 0.073 0.793 0.137 1.417 0.19 1.87v0 2.15c0.047 0.26 0.197 0.627 0.45 1.1 0.253 0.473 0.41 0.823 0.47 1.05v0c0 0.327-0.063 0.49-0.19 0.49zM200.83-26.37v0c0 0.98 0.007 1.707 0.02 2.18 0.02 0.467 0.11 1.083 0.27 1.85 0.167 0.767 0.413 1.313 0.74 1.64v0c0.68 0 1.327-0.073 1.94-0.22 0.607-0.147 1.197-0.383 1.77-0.71 0.567-0.327 1.017-0.81 1.35-1.45 0.333-0.647 0.5-1.417 0.5-2.31v0c0-0.507-0.09-0.95-0.27-1.33-0.18-0.38-0.44-0.687-0.78-0.92-0.34-0.227-0.677-0.41-1.01-0.55-0.333-0.133-0.74-0.23-1.22-0.29-0.48-0.053-0.86-0.09-1.14-0.11-0.273-0.013-0.607-0.02-1-0.02v0h-0.58c-0.247 0.113-0.407 0.34-0.48 0.68-0.073 0.34-0.11 0.86-0.11 1.56zM220.36 0v0c1.013-3.727 2.13-7.51 3.35-11.35 1.22-3.84 2.737-8.433 4.55-13.78 1.813-5.347 3.053-9.047 3.72-11.1v0c0.2-0.327 0.33-0.523 0.39-0.59v0h4.1c0.967 0 2.383-0.017 4.25-0.05 1.873-0.027 3.29-0.04 4.25-0.04v0h4.1c0.247 0 0.45 0.003 0.61 0.01 0.167 0.007 0.363 0.027 0.59 0.06 0.227 0.033 0.41 0.083 0.55 0.15 0.14 0.06 0.257 0.157 0.35 0.29 0.1 0.127 0.15 0.28 0.15 0.46v0l11.25 35.67c0 0.327-0.117 0.55-0.35 0.67-0.233 0.127-0.677 0.19-1.33 0.19v0h-2.25c-0.647 0-1.613 0.007-2.9 0.02-1.287 0.013-2.257 0.02-2.91 0.02v0c-0.193 0-0.587 0.013-1.18 0.04-0.593 0.027-1.093 0.037-1.5 0.03-0.407-0.013-0.86-0.04-1.36-0.08-0.493-0.04-0.89-0.13-1.19-0.27-0.307-0.133-0.5-0.317-0.58-0.55v0-1.61c-0.16-0.813-0.443-1.56-0.85-2.24-0.407-0.687-0.84-1.03-1.3-1.03v0h-8.4l-1.26 5.18c-0.18 0.387-1.093 0.58-2.74 0.58v0h-1.95c-0.7 0-1.743 0.027-3.13 0.08-1.38 0.047-2.42 0.07-3.12 0.07v0h-0.69c-0.26 0-0.67 0.007-1.23 0.02-0.56 0.02-0.997 0.03-1.31 0.03v0c-0.127-0.133-0.353-0.427-0.68-0.88zM239.26-23.29l-1.96 8.47 0.69 1.15h1.61c1.3 0 2.493-0.077 3.58-0.23 1.08-0.16 1.62-0.41 1.62-0.75v0l-3.15-14.06c-0.293 0-0.687 0.553-1.18 1.66-0.5 1.107-0.903 2.36-1.21 3.76zM264.55 0.68l-1.07-0.58v-11.04c-0.033-4.033 0.097-11.73 0.39-23.09v0-2.01c0-0.353 0.063-0.563 0.19-0.63v0h16.8c0.16 0 0.49 0.62 0.99 1.86 0.493 1.233 1.093 2.823 1.8 4.77 0.713 1.947 1.217 3.283 1.51 4.01v0l3.41 8.94v-9.47c0-0.813 0.023-2.307 0.07-4.48 0.04-2.173 0.05-3.87 0.03-5.09v0c0-0.46 1.303-0.69 3.91-0.69v0c0.813 0 1.927 0.017 3.34 0.05 1.42 0.033 2.293 0.05 2.62 0.05v0h1.85c0.26 0 0.39 0.05 0.39 0.15v0c0.1 4.52 0.15 10.997 0.15 19.43v0 16.94c-0.113 0.427-0.633 0.64-1.56 0.64v0h-0.64c-0.847 0-2.09 0.017-3.73 0.05-1.647 0.033-2.893 0.05-3.74 0.05v0h-7.18c-0.227-0.08-0.697-1.107-1.41-3.08v0c-0.767-2.133-1.907-5.217-3.42-9.25-1.513-4.04-2.36-6.293-2.54-6.76v0c0 0.96-0.01 2.39-0.03 4.29-0.013 1.907-0.02 3.34-0.02 4.3v0c0 0.713 0.017 1.787 0.05 3.22 0.033 1.433 0.05 2.507 0.05 3.22v0 3.08c0 0.747-0.327 1.12-0.98 1.12v0zM300.78-36.52v-0.1z" fill="#000000" fill-rule="nonzero" stroke="none" stroke-width="1" stroke-linecap="butt" stroke-linejoin="miter" stroke-miterlimit="10" stroke-dasharray="" stroke-dashoffset="0" font-family="none" font-weight="none" font-size="none" text-anchor="none" style="mix-blend-mode: normal" data-fill-palette-color="primary" opacity="1"></path><path xmlns="http://www.w3.org/2000/svg" d="M-1.17 42.45v0c1.007-3.727 2.12-7.51 3.34-11.35 1.22-3.84 2.74-8.433 4.56-13.78 1.813-5.347 3.053-9.047 3.72-11.1v0c0.193-0.327 0.323-0.523 0.39-0.59v0h4.1c0.96 0 2.377-0.017 4.25-0.05 1.873-0.027 3.29-0.04 4.25-0.04v0h4.1c0.247 0 0.45 0.003 0.61 0.01 0.16 0.007 0.357 0.027 0.59 0.06 0.227 0.033 0.407 0.083 0.54 0.15 0.14 0.06 0.26 0.157 0.36 0.29 0.1 0.127 0.15 0.28 0.15 0.46v0l11.25 35.67c0 0.327-0.117 0.55-0.35 0.67-0.24 0.127-0.683 0.19-1.33 0.19v0h-2.25c-0.653 0-1.623 0.007-2.91 0.02-1.28 0.013-2.247 0.02-2.9 0.02v0c-0.193 0-0.59 0.013-1.19 0.04-0.593 0.027-1.093 0.037-1.5 0.03-0.407-0.013-0.857-0.04-1.35-0.08-0.5-0.04-0.9-0.13-1.2-0.27-0.3-0.133-0.49-0.317-0.57-0.55v0-1.61c-0.167-0.813-0.453-1.56-0.86-2.24-0.407-0.687-0.837-1.03-1.29-1.03v0h-8.4l-1.27 5.18c-0.18 0.387-1.09 0.58-2.73 0.58v0h-1.96c-0.7 0-1.74 0.027-3.12 0.08-1.387 0.047-2.43 0.07-3.13 0.07v0h-0.68c-0.26 0-0.67 0.007-1.23 0.02-0.56 0.02-0.997 0.03-1.31 0.03v0c-0.127-0.133-0.353-0.427-0.68-0.88zM17.72 19.16l-1.95 8.47 0.69 1.15h1.61c1.3 0 2.49-0.077 3.57-0.23 1.087-0.16 1.63-0.41 1.63-0.75v0l-3.15-14.06c-0.293 0-0.69 0.553-1.19 1.66-0.493 1.107-0.897 2.36-1.21 3.76zM57.76 43.91v0c-1.92-0.08-3.643-0.247-5.17-0.5-1.533-0.247-3.01-0.653-4.43-1.22-1.427-0.56-2.623-1.267-3.59-2.12-0.967-0.853-1.773-1.947-2.42-3.28-0.64-1.34-1.033-2.887-1.18-4.64v0c0-0.313 0.163-0.493 0.49-0.54v0c0.093 0.033 0.253 0.05 0.48 0.05v0c1.353 0 3.407-0.033 6.16-0.1 2.747-0.067 4.797-0.1 6.15-0.1v0c0.34 0 0.607 0.11 0.8 0.33 0.2 0.22 0.36 0.49 0.48 0.81 0.12 0.313 0.267 0.63 0.44 0.95 0.173 0.32 0.467 0.59 0.88 0.81 0.413 0.22 0.947 0.33 1.6 0.33v0c0.793 0 1.497-0.227 2.11-0.68 0.607-0.447 0.91-1.05 0.91-1.81v0c0-0.507-0.26-0.973-0.78-1.4-0.52-0.42-1.207-0.763-2.06-1.03-0.853-0.273-1.667-0.503-2.44-0.69-0.773-0.187-1.567-0.347-2.38-0.48-0.813-0.14-1.287-0.227-1.42-0.26v0c-3.953-1.073-6.797-2.41-8.53-4.01-1.733-1.593-2.6-3.773-2.6-6.54v0c0-1.953 0.357-3.707 1.07-5.26 0.72-1.553 1.657-2.823 2.81-3.81 1.16-0.987 2.527-1.807 4.1-2.46 1.58-0.66 3.177-1.127 4.79-1.4 1.613-0.267 3.28-0.4 5-0.4v0c4.573 0 8.22 0.847 10.94 2.54v0c0.993 0.993 1.723 1.747 2.19 2.26 0.46 0.513 0.907 1.11 1.34 1.79 0.433 0.687 0.733 1.36 0.9 2.02 0.173 0.66 0.293 1.47 0.36 2.43v0l-0.88 0.88c-3.34 0.127-7.083 0.19-11.23 0.19v0c-0.52 0-0.94-0.057-1.26-0.17-0.32-0.113-0.533-0.26-0.64-0.44-0.1-0.18-0.203-0.367-0.31-0.56-0.107-0.193-0.207-0.38-0.3-0.56-0.087-0.18-0.273-0.327-0.56-0.44-0.28-0.113-0.657-0.17-1.13-0.17v0c-0.133 0-0.343 0.023-0.63 0.07-0.28 0.047-0.613 0.123-1 0.23-0.38 0.107-0.71 0.27-0.99 0.49-0.273 0.22-0.41 0.477-0.41 0.77v0c0 0.36 0.183 0.687 0.55 0.98 0.367 0.293 0.753 0.503 1.16 0.63 0.407 0.133 0.91 0.277 1.51 0.43 0.607 0.153 0.983 0.253 1.13 0.3v0c3.547 0.9 5.66 1.453 6.34 1.66v0c3.567 1.127 6.09 2.6 7.57 4.42v0c1.367 1.693 2.05 3.817 2.05 6.37v0c0 1.547-0.2 2.957-0.6 4.23-0.393 1.267-0.917 2.34-1.57 3.22-0.653 0.88-1.467 1.66-2.44 2.34-0.98 0.687-1.97 1.233-2.97 1.64-1 0.407-2.133 0.75-3.4 1.03-1.273 0.273-2.443 0.47-3.51 0.59-1.067 0.127-2.227 0.22-3.48 0.28zM93.99 43.91v0c-1.92-0.08-3.643-0.247-5.17-0.5-1.533-0.247-3.01-0.653-4.43-1.22-1.427-0.56-2.623-1.267-3.59-2.12-0.967-0.853-1.773-1.947-2.42-3.28-0.64-1.34-1.033-2.887-1.18-4.64v0c0-0.313 0.163-0.493 0.49-0.54v0c0.093 0.033 0.253 0.05 0.48 0.05v0c1.353 0 3.407-0.033 6.16-0.1 2.747-0.067 4.797-0.1 6.15-0.1v0c0.34 0 0.607 0.11 0.8 0.33 0.2 0.22 0.36 0.49 0.48 0.81 0.12 0.313 0.267 0.63 0.44 0.95 0.173 0.32 0.467 0.59 0.88 0.81 0.413 0.22 0.947 0.33 1.6 0.33v0c0.793 0 1.497-0.227 2.11-0.68 0.613-0.447 0.92-1.05 0.92-1.81v0c0-0.507-0.263-0.973-0.79-1.4-0.52-0.42-1.207-0.763-2.06-1.03-0.853-0.273-1.667-0.503-2.44-0.69-0.773-0.187-1.567-0.347-2.38-0.48-0.813-0.14-1.287-0.227-1.42-0.26v0c-3.953-1.073-6.797-2.41-8.53-4.01-1.733-1.593-2.6-3.773-2.6-6.54v0c0-1.953 0.357-3.707 1.07-5.26 0.72-1.553 1.657-2.823 2.81-3.81 1.16-0.987 2.527-1.807 4.1-2.46 1.58-0.66 3.177-1.127 4.79-1.4 1.613-0.267 3.28-0.4 5-0.4v0c4.573 0 8.22 0.847 10.94 2.54v0c0.993 0.993 1.723 1.747 2.19 2.26 0.46 0.513 0.907 1.11 1.34 1.79 0.433 0.687 0.733 1.36 0.9 2.02 0.173 0.66 0.293 1.47 0.36 2.43v0l-0.88 0.88c-3.34 0.127-7.083 0.19-11.23 0.19v0c-0.52 0-0.94-0.057-1.26-0.17-0.32-0.113-0.533-0.26-0.64-0.44-0.1-0.18-0.203-0.367-0.31-0.56-0.107-0.193-0.207-0.38-0.3-0.56-0.087-0.18-0.273-0.327-0.56-0.44-0.28-0.113-0.657-0.17-1.13-0.17v0c-0.133 0-0.34 0.023-0.62 0.07-0.287 0.047-0.623 0.123-1.01 0.23-0.38 0.107-0.707 0.27-0.98 0.49-0.28 0.22-0.42 0.477-0.42 0.77v0c0 0.36 0.183 0.687 0.55 0.98 0.367 0.293 0.753 0.503 1.16 0.63 0.407 0.133 0.91 0.277 1.51 0.43 0.607 0.153 0.983 0.253 1.13 0.3v0c3.547 0.9 5.66 1.453 6.34 1.66v0c3.567 1.127 6.09 2.6 7.57 4.42v0c1.367 1.693 2.05 3.817 2.05 6.37v0c0 1.547-0.2 2.957-0.6 4.23-0.393 1.267-0.917 2.34-1.57 3.22-0.653 0.88-1.467 1.66-2.44 2.34-0.98 0.687-1.97 1.233-2.97 1.64-1 0.407-2.133 0.75-3.4 1.03-1.273 0.273-2.443 0.47-3.51 0.59-1.067 0.127-2.227 0.22-3.48 0.28zM130.22 43.08h-15.77c0.067-4.733 0.18-8.2 0.34-10.4v0c0-6.833 0.1-13.767 0.3-20.8v0c-0.067-1.367-0.1-2.373-0.1-3.02v0-0.74c-0.067-0.713-0.1-1.297-0.1-1.75v0c0-0.313 0.147-0.59 0.44-0.83v0c2.673 0.193 6.743 0.29 12.21 0.29v0c1.3 0 2.193-0.033 2.68-0.1v0zM150.78 43.91v0c-1.92-0.08-3.643-0.247-5.17-0.5-1.533-0.247-3.013-0.653-4.44-1.22-1.42-0.56-2.613-1.267-3.58-2.12-0.973-0.853-1.78-1.947-2.42-3.28-0.647-1.34-1.043-2.887-1.19-4.64v0c0-0.313 0.163-0.493 0.49-0.54v0c0.1 0.033 0.263 0.05 0.49 0.05v0c1.353 0 3.403-0.033 6.15-0.1 2.753-0.067 4.807-0.1 6.16-0.1v0c0.34 0 0.607 0.11 0.8 0.33 0.193 0.22 0.353 0.49 0.48 0.81 0.12 0.313 0.267 0.63 0.44 0.95 0.167 0.32 0.46 0.59 0.88 0.81 0.413 0.22 0.943 0.33 1.59 0.33v0c0.8 0 1.507-0.227 2.12-0.68 0.607-0.447 0.91-1.05 0.91-1.81v0c0-0.507-0.26-0.973-0.78-1.4-0.52-0.42-1.207-0.763-2.06-1.03-0.853-0.273-1.667-0.503-2.44-0.69-0.773-0.187-1.567-0.347-2.38-0.48-0.813-0.14-1.287-0.227-1.42-0.26v0c-3.953-1.073-6.797-2.41-8.53-4.01-1.733-1.593-2.6-3.773-2.6-6.54v0c0-1.953 0.357-3.707 1.07-5.26 0.72-1.553 1.657-2.823 2.81-3.81 1.153-0.987 2.52-1.807 4.1-2.46 1.58-0.66 3.177-1.127 4.79-1.4 1.607-0.267 3.273-0.4 5-0.4v0c4.573 0 8.22 0.847 10.94 2.54v0c0.993 0.993 1.72 1.747 2.18 2.26 0.467 0.513 0.917 1.11 1.35 1.79 0.427 0.687 0.727 1.36 0.9 2.02 0.173 0.66 0.29 1.47 0.35 2.43v0l-0.88 0.88c-3.333 0.127-7.077 0.19-11.23 0.19v0c-0.52 0-0.937-0.057-1.25-0.17-0.32-0.113-0.533-0.26-0.64-0.44-0.107-0.18-0.213-0.367-0.32-0.56-0.1-0.193-0.197-0.38-0.29-0.56-0.087-0.18-0.273-0.327-0.56-0.44-0.287-0.113-0.667-0.17-1.14-0.17v0c-0.127 0-0.333 0.023-0.62 0.07-0.28 0.047-0.613 0.123-1 0.23-0.38 0.107-0.71 0.27-0.99 0.49-0.273 0.22-0.41 0.477-0.41 0.77v0c0 0.36 0.183 0.687 0.55 0.98 0.367 0.293 0.753 0.503 1.16 0.63 0.407 0.133 0.91 0.277 1.51 0.43 0.6 0.153 0.973 0.253 1.12 0.3v0c3.553 0.9 5.67 1.453 6.35 1.66v0c3.567 1.127 6.09 2.6 7.57 4.42v0c1.367 1.693 2.05 3.817 2.05 6.37v0c0 1.547-0.2 2.957-0.6 4.23-0.4 1.267-0.923 2.34-1.57 3.22-0.653 0.88-1.467 1.66-2.44 2.34-0.98 0.687-1.97 1.233-2.97 1.64-1 0.407-2.137 0.75-3.41 1.03-1.267 0.273-2.433 0.47-3.5 0.59-1.067 0.127-2.227 0.22-3.48 0.28zM168.85 13.2v0c0-0.293 0.017-0.727 0.05-1.3 0.033-0.58 0.05-0.977 0.05-1.19v0c0-0.08-0.017-0.373-0.05-0.88-0.033-0.5-0.05-0.94-0.05-1.32v0c0-1.72 0.163-2.58 0.49-2.58v0c0.127 0 0.24 0.017 0.34 0.05v0c3.4 0 8.44-0.043 15.12-0.13 6.68-0.08 11.68-0.12 15-0.12v0c0.833 0 1.36 0.073 1.58 0.22 0.22 0.147 0.33 0.433 0.33 0.86v0 0.68c0 0.847 0.007 2.097 0.02 3.75 0.02 1.647 0.03 2.903 0.03 3.77v0c0 0.847-0.23 1.27-0.69 1.27v0c-0.907 0-2.263-0.017-4.07-0.05-1.807-0.033-3.167-0.05-4.08-0.05v0 26.17c-0.113 0.487-0.39 0.747-0.83 0.78v0c-0.567 0-1.397-0.007-2.49-0.02-1.093-0.02-1.923-0.03-2.49-0.03v0c-0.033 0-0.067 0.017-0.1 0.05v0c-0.713 0-1.717-0.007-3.01-0.02-1.293-0.02-2.26-0.03-2.9-0.03v0h-1.46c-0.327 0.033-0.8 0.05-1.42 0.05v0l-0.97-1.17c0-2.473 0.08-6.15 0.24-11.03 0.16-4.887 0.24-8.567 0.24-11.04v0c0-0.113-0.003-0.3-0.01-0.56-0.007-0.26-0.01-0.47-0.01-0.63 0-0.167-0.013-0.373-0.04-0.62-0.02-0.24-0.06-0.437-0.12-0.59-0.053-0.16-0.123-0.317-0.21-0.47-0.08-0.153-0.19-0.267-0.33-0.34-0.133-0.073-0.3-0.11-0.5-0.11v0h-6.98c-0.453-0.127-0.68-1.25-0.68-3.37z" fill="#000000" fill-rule="nonzero" stroke="none" stroke-width="1" stroke-linecap="butt" stroke-linejoin="miter" stroke-miterlimit="10" stroke-dasharray="" stroke-dashoffset="0" font-family="none" font-weight="none" font-size="none" text-anchor="none" style="mix-blend-mode: normal" data-fill-palette-color="secondary" opacity="1"></path></g></svg></g></svg></g></svg></g></svg></g></svg></g><defs></defs></svg><rect width="395.5199999999999" height="111.4506267379679" fill="none" stroke="none" visibility="hidden"></rect></g></svg></g></svg>